<svg width="248" height="96" viewBox="0 0 248 96" fill="none" xmlns="http://www.w3.org/2000/svg">
<mask id="path-1-inside-1_1_555" fill="white">
<path d="M0 16.5C0 7.66344 7.16344 0.5 16 0.5H232C240.837 0.5 248 7.66344 248 16.5V79.5C248 88.3366 240.837 95.5 232 95.5H16C7.16344 95.5 0 88.3366 0 79.5V16.5Z"/>
</mask>
<path d="M0 16.5C0 7.66344 7.16344 0.5 16 0.5H232C240.837 0.5 248 7.66344 248 16.5V79.5C248 88.3366 240.837 95.5 232 95.5H16C7.16344 95.5 0 88.3366 0 79.5V16.5Z" fill="white"/>
<path d="M-1 16.5C-1 7.11116 6.61116 -0.5 16 -0.5H235C244.389 -0.5 252 7.11116 252 16.5H244C244 8.21573 238.627 1.5 232 1.5H16C7.71573 1.5 1 8.21573 1 16.5H-1ZM252 79.5C252 90.5457 243.046 99.5 232 99.5H16C6.61116 99.5 -1 91.8888 -1 82.5L1 79.5C1 86.1274 7.71573 91.5 16 91.5H232C238.627 91.5 244 86.1274 244 79.5H252ZM16 99.5C6.61116 99.5 -1 91.8888 -1 82.5V16.5C-1 7.11116 6.61116 -0.5 16 -0.5V1.5C7.71573 1.5 1 8.21573 1 16.5V79.5C1 86.1274 7.71573 91.5 16 91.5V99.5ZM235 -0.5C244.389 -0.5 252 7.11116 252 16.5V79.5C252 90.5457 243.046 99.5 232 99.5V91.5C238.627 91.5 244 86.1274 244 79.5V16.5C244 8.21573 238.627 1.5 232 1.5L235 -0.5Z" fill="#0B0A2F" mask="url(#path-1-inside-1_1_555)"/>
<path d="M36.6034 73C41.2384 73 45.0001 69.2667 45.0001 64.6667V56.3334H36.6034C31.9684 56.3334 28.2066 60.0667 28.2066 64.6667C28.2066 69.2667 31.9684 73 36.6034 73Z" fill="#0ACF83"/>
<path d="M28.2066 48C28.2066 43.4 31.9684 39.6666 36.6034 39.6666H45.0001V56.3333H36.6034C31.9684 56.3333 28.2066 52.6 28.2066 48Z" fill="#A259FF"/>
<path d="M28.2067 31.3333C28.2067 26.7333 31.9685 23 36.6035 23H45.0002V39.6667H36.6035C31.9685 39.6667 28.2067 35.9333 28.2067 31.3333Z" fill="#F24E1E"/>
<path d="M45 23H53.3968C58.0318 23 61.7935 26.7333 61.7935 31.3333C61.7935 35.9333 58.0318 39.6667 53.3968 39.6667H45V23Z" fill="#FF7262"/>
<path d="M61.7935 48C61.7935 52.6 58.0318 56.3333 53.3968 56.3333C48.7617 56.3333 45 52.6 45 48C45 43.4 48.7617 39.6666 53.3968 39.6666C58.0318 39.6666 61.7935 43.4 61.7935 48Z" fill="#1ABCFE"/>
<path d="M85.8768 43.5V27.11H97.0968V30.08H89.2868V34.238H95.9968V37.208H89.2868V43.5H85.8768ZM98.5469 43.5V31.488H101.847V43.5H98.5469ZM98.5469 30.41V27.11H101.847V30.41H98.5469ZM110.158 48.34C109.234 48.34 108.376 48.186 107.584 47.878C106.792 47.57 106.11 47.1373 105.538 46.58C104.98 46.0373 104.577 45.392 104.328 44.644L107.386 43.566C107.547 44.1233 107.877 44.5633 108.376 44.886C108.874 45.2087 109.468 45.37 110.158 45.37C110.7 45.37 111.17 45.2673 111.566 45.062C111.962 44.8713 112.262 44.5853 112.468 44.204C112.688 43.8227 112.798 43.3753 112.798 42.862V40.112L113.436 40.904C113.025 41.5787 112.497 42.0847 111.852 42.422C111.206 42.7447 110.451 42.906 109.586 42.906C108.471 42.906 107.474 42.6567 106.594 42.158C105.714 41.6447 105.024 40.948 104.526 40.068C104.027 39.1733 103.778 38.1613 103.778 37.032C103.778 35.9027 104.027 34.9053 104.526 34.04C105.024 33.16 105.706 32.4707 106.572 31.972C107.437 31.4733 108.42 31.224 109.52 31.224C110.385 31.224 111.14 31.4 111.786 31.752C112.431 32.0893 112.981 32.61 113.436 33.314L113.018 34.106V31.488H116.098V42.862C116.098 43.918 115.841 44.8567 115.328 45.678C114.814 46.514 114.11 47.1667 113.216 47.636C112.336 48.1053 111.316 48.34 110.158 48.34ZM110.048 39.914C110.605 39.914 111.089 39.7967 111.5 39.562C111.91 39.3273 112.226 38.9973 112.446 38.572C112.68 38.1467 112.798 37.648 112.798 37.076C112.798 36.504 112.68 36.0053 112.446 35.58C112.211 35.14 111.888 34.8027 111.478 34.568C111.067 34.3187 110.59 34.194 110.048 34.194C109.49 34.194 108.992 34.3187 108.552 34.568C108.126 34.8027 107.789 35.14 107.54 35.58C107.305 36.0053 107.188 36.504 107.188 37.076C107.188 37.6333 107.305 38.1247 107.54 38.55C107.789 38.9753 108.126 39.3127 108.552 39.562C108.992 39.7967 109.49 39.914 110.048 39.914ZM118.527 43.5V31.488H121.607V34.414L121.277 33.93C121.453 33.006 121.879 32.324 122.553 31.884C123.228 31.444 124.035 31.224 124.973 31.224C125.971 31.224 126.843 31.4807 127.591 31.994C128.354 32.4927 128.831 33.1673 129.021 34.018L128.075 34.106C128.471 33.1233 129.036 32.3973 129.769 31.928C130.503 31.4587 131.361 31.224 132.343 31.224C133.209 31.224 133.971 31.4147 134.631 31.796C135.306 32.1773 135.834 32.7127 136.215 33.402C136.597 34.0767 136.787 34.8687 136.787 35.778V43.5H133.487V36.482C133.487 36.0127 133.399 35.6093 133.223 35.272C133.062 34.9347 132.827 34.6707 132.519 34.48C132.211 34.2893 131.837 34.194 131.397 34.194C130.972 34.194 130.598 34.2893 130.275 34.48C129.967 34.6707 129.725 34.9347 129.549 35.272C129.388 35.6093 129.307 36.0127 129.307 36.482V43.5H126.007V36.482C126.007 36.0127 125.919 35.6093 125.743 35.272C125.582 34.9347 125.347 34.6707 125.039 34.48C124.731 34.2893 124.357 34.194 123.917 34.194C123.492 34.194 123.118 34.2893 122.795 34.48C122.487 34.6707 122.245 34.9347 122.069 35.272C121.908 35.6093 121.827 36.0127 121.827 36.482V43.5H118.527ZM142.677 43.764C141.812 43.764 141.064 43.6247 140.433 43.346C139.802 43.0673 139.318 42.6713 138.981 42.158C138.644 41.63 138.475 41.0067 138.475 40.288C138.475 39.6133 138.629 39.0193 138.937 38.506C139.245 37.978 139.714 37.538 140.345 37.186C140.99 36.834 141.79 36.5847 142.743 36.438L146.417 35.844V38.264L143.337 38.814C142.868 38.902 142.508 39.056 142.259 39.276C142.01 39.4813 141.885 39.782 141.885 40.178C141.885 40.5447 142.024 40.8307 142.303 41.036C142.582 41.2413 142.926 41.344 143.337 41.344C143.88 41.344 144.356 41.2267 144.767 40.992C145.178 40.7573 145.493 40.442 145.713 40.046C145.948 39.6353 146.065 39.188 146.065 38.704V35.58C146.065 35.1253 145.882 34.744 145.515 34.436C145.163 34.128 144.679 33.974 144.063 33.974C143.476 33.974 142.956 34.1353 142.501 34.458C142.061 34.7807 141.738 35.206 141.533 35.734L138.893 34.48C139.128 33.8053 139.502 33.226 140.015 32.742C140.528 32.258 141.144 31.884 141.863 31.62C142.582 31.356 143.366 31.224 144.217 31.224C145.229 31.224 146.124 31.4073 146.901 31.774C147.678 32.1407 148.28 32.654 148.705 33.314C149.145 33.9593 149.365 34.7147 149.365 35.58V43.5H146.285V41.564L147.033 41.432C146.681 41.96 146.292 42.4 145.867 42.752C145.442 43.0893 144.965 43.3387 144.437 43.5C143.909 43.676 143.322 43.764 142.677 43.764Z" fill="#0B0A2F"/>
<path d="M85.494 71.5V58.09H89.886C91.242 58.09 92.424 58.366 93.432 58.918C94.44 59.47 95.22 60.25 95.772 61.258C96.324 62.254 96.6 63.43 96.6 64.786C96.6 66.13 96.324 67.306 95.772 68.314C95.22 69.322 94.44 70.108 93.432 70.672C92.424 71.224 91.242 71.5 89.886 71.5H85.494ZM87.258 69.88H89.904C90.9 69.88 91.758 69.67 92.478 69.25C93.21 68.83 93.774 68.242 94.17 67.486C94.566 66.718 94.764 65.818 94.764 64.786C94.764 63.742 94.56 62.842 94.152 62.086C93.756 61.33 93.192 60.748 92.46 60.34C91.74 59.92 90.888 59.71 89.904 59.71H87.258V69.88ZM103.102 71.716C102.166 71.716 101.332 71.494 100.6 71.05C99.8678 70.606 99.2918 70 98.8718 69.232C98.4518 68.452 98.2418 67.582 98.2418 66.622C98.2418 65.65 98.4458 64.786 98.8538 64.03C99.2738 63.274 99.8378 62.68 100.546 62.248C101.266 61.804 102.07 61.582 102.958 61.582C103.678 61.582 104.314 61.714 104.866 61.978C105.43 62.23 105.904 62.578 106.288 63.022C106.684 63.454 106.984 63.952 107.188 64.516C107.404 65.068 107.512 65.644 107.512 66.244C107.512 66.376 107.5 66.526 107.476 66.694C107.464 66.85 107.446 67 107.422 67.144H99.4658V65.704H106.45L105.658 66.352C105.766 65.728 105.706 65.17 105.478 64.678C105.25 64.186 104.914 63.796 104.47 63.508C104.026 63.22 103.522 63.076 102.958 63.076C102.394 63.076 101.878 63.22 101.41 63.508C100.942 63.796 100.576 64.21 100.312 64.75C100.06 65.278 99.9578 65.908 100.006 66.64C99.9578 67.348 100.066 67.972 100.33 68.512C100.606 69.04 100.99 69.454 101.482 69.754C101.986 70.042 102.532 70.186 103.12 70.186C103.768 70.186 104.314 70.036 104.758 69.736C105.202 69.436 105.562 69.052 105.838 68.584L107.242 69.304C107.05 69.748 106.75 70.156 106.342 70.528C105.946 70.888 105.472 71.176 104.92 71.392C104.38 71.608 103.774 71.716 103.102 71.716ZM113.168 71.716C112.196 71.716 111.35 71.476 110.63 70.996C109.91 70.516 109.4 69.868 109.1 69.052L110.432 68.404C110.708 68.98 111.086 69.436 111.566 69.772C112.046 70.108 112.58 70.276 113.168 70.276C113.696 70.276 114.134 70.15 114.482 69.898C114.83 69.646 115.004 69.316 115.004 68.908C115.004 68.62 114.92 68.392 114.752 68.224C114.596 68.044 114.404 67.906 114.176 67.81C113.948 67.702 113.738 67.624 113.546 67.576L112.088 67.162C111.212 66.91 110.57 66.55 110.162 66.082C109.766 65.614 109.568 65.068 109.568 64.444C109.568 63.868 109.712 63.37 110 62.95C110.3 62.518 110.702 62.182 111.206 61.942C111.722 61.702 112.298 61.582 112.934 61.582C113.786 61.582 114.548 61.798 115.22 62.23C115.904 62.662 116.39 63.268 116.678 64.048L115.31 64.678C115.094 64.174 114.77 63.778 114.338 63.49C113.906 63.19 113.42 63.04 112.88 63.04C112.388 63.04 111.998 63.166 111.71 63.418C111.422 63.658 111.278 63.964 111.278 64.336C111.278 64.612 111.35 64.84 111.494 65.02C111.638 65.188 111.812 65.32 112.016 65.416C112.22 65.5 112.418 65.572 112.61 65.632L114.194 66.1C114.986 66.328 115.598 66.682 116.03 67.162C116.474 67.642 116.696 68.218 116.696 68.89C116.696 69.43 116.546 69.916 116.246 70.348C115.946 70.78 115.532 71.116 115.004 71.356C114.476 71.596 113.864 71.716 113.168 71.716ZM118.888 71.5V61.798H120.562V71.5H118.888ZM118.888 60.25V58.09H120.562V60.25H118.888ZM127.785 75.46C127.101 75.46 126.465 75.352 125.877 75.136C125.301 74.92 124.803 74.62 124.383 74.236C123.975 73.864 123.663 73.426 123.447 72.922L125.013 72.202C125.181 72.658 125.499 73.042 125.967 73.354C126.447 73.678 127.047 73.84 127.767 73.84C128.319 73.84 128.817 73.732 129.261 73.516C129.717 73.312 130.077 73 130.341 72.58C130.605 72.172 130.737 71.674 130.737 71.086V68.908L131.043 69.232C130.707 69.892 130.221 70.396 129.585 70.744C128.961 71.092 128.271 71.266 127.515 71.266C126.603 71.266 125.787 71.056 125.067 70.636C124.347 70.204 123.783 69.622 123.375 68.89C122.967 68.146 122.763 67.324 122.763 66.424C122.763 65.512 122.967 64.69 123.375 63.958C123.783 63.226 124.341 62.65 125.049 62.23C125.769 61.798 126.585 61.582 127.497 61.582C128.253 61.582 128.937 61.756 129.549 62.104C130.173 62.44 130.671 62.908 131.043 63.508L130.791 63.958V61.798H132.429V71.086C132.429 71.926 132.231 72.676 131.835 73.336C131.439 73.996 130.887 74.512 130.179 74.884C129.483 75.268 128.685 75.46 127.785 75.46ZM127.659 69.646C128.235 69.646 128.751 69.502 129.207 69.214C129.675 68.926 130.047 68.542 130.323 68.062C130.599 67.57 130.737 67.024 130.737 66.424C130.737 65.836 130.599 65.296 130.323 64.804C130.047 64.312 129.675 63.922 129.207 63.634C128.751 63.346 128.235 63.202 127.659 63.202C127.071 63.202 126.537 63.346 126.057 63.634C125.577 63.922 125.199 64.312 124.923 64.804C124.659 65.284 124.527 65.824 124.527 66.424C124.527 67.024 124.659 67.57 124.923 68.062C125.199 68.542 125.571 68.926 126.039 69.214C126.519 69.502 127.059 69.646 127.659 69.646ZM135.025 71.5V61.798H136.663V63.688L136.393 63.526C136.633 62.914 137.017 62.44 137.545 62.104C138.085 61.756 138.715 61.582 139.435 61.582C140.131 61.582 140.749 61.738 141.289 62.05C141.841 62.362 142.273 62.794 142.585 63.346C142.909 63.898 143.071 64.522 143.071 65.218V71.5H141.379V65.758C141.379 65.218 141.283 64.762 141.091 64.39C140.899 64.018 140.623 63.73 140.263 63.526C139.915 63.31 139.513 63.202 139.057 63.202C138.601 63.202 138.193 63.31 137.833 63.526C137.485 63.73 137.209 64.024 137.005 64.408C136.801 64.78 136.699 65.23 136.699 65.758V71.5H135.025ZM153.383 71.716C152.531 71.716 151.751 71.56 151.043 71.248C150.335 70.924 149.735 70.486 149.243 69.934C148.751 69.382 148.397 68.764 148.181 68.08L149.711 67.45C150.035 68.314 150.515 68.98 151.151 69.448C151.799 69.904 152.555 70.132 153.419 70.132C153.947 70.132 154.409 70.048 154.805 69.88C155.201 69.712 155.507 69.478 155.723 69.178C155.951 68.866 156.065 68.506 156.065 68.098C156.065 67.534 155.903 67.09 155.579 66.766C155.267 66.43 154.805 66.178 154.193 66.01L151.727 65.254C150.755 64.954 150.011 64.48 149.495 63.832C148.979 63.184 148.721 62.44 148.721 61.6C148.721 60.868 148.895 60.226 149.243 59.674C149.603 59.11 150.095 58.672 150.719 58.36C151.355 58.036 152.075 57.874 152.879 57.874C153.683 57.874 154.409 58.018 155.057 58.306C155.717 58.594 156.275 58.984 156.731 59.476C157.187 59.956 157.523 60.508 157.739 61.132L156.227 61.762C155.939 61.006 155.507 60.436 154.931 60.052C154.355 59.656 153.677 59.458 152.897 59.458C152.417 59.458 151.991 59.542 151.619 59.71C151.259 59.866 150.977 60.1 150.773 60.412C150.581 60.712 150.485 61.072 150.485 61.492C150.485 61.984 150.641 62.422 150.953 62.806C151.265 63.19 151.739 63.484 152.375 63.688L154.625 64.354C155.681 64.678 156.479 65.14 157.019 65.74C157.559 66.34 157.829 67.084 157.829 67.972C157.829 68.704 157.637 69.352 157.253 69.916C156.881 70.48 156.359 70.924 155.687 71.248C155.027 71.56 154.259 71.716 153.383 71.716ZM164.822 71.716C163.886 71.716 163.04 71.5 162.284 71.068C161.528 70.624 160.928 70.018 160.484 69.25C160.04 68.482 159.818 67.612 159.818 66.64C159.818 65.668 160.034 64.804 160.466 64.048C160.91 63.292 161.51 62.692 162.266 62.248C163.022 61.804 163.874 61.582 164.822 61.582C165.758 61.582 166.604 61.804 167.36 62.248C168.116 62.68 168.71 63.274 169.142 64.03C169.586 64.786 169.808 65.656 169.808 66.64C169.808 67.624 169.58 68.5 169.124 69.268C168.668 70.024 168.062 70.624 167.306 71.068C166.562 71.5 165.734 71.716 164.822 71.716ZM164.822 70.096C165.422 70.096 165.962 69.946 166.442 69.646C166.934 69.346 167.318 68.932 167.594 68.404C167.882 67.876 168.026 67.288 168.026 66.64C168.026 65.98 167.882 65.398 167.594 64.894C167.318 64.378 166.934 63.97 166.442 63.67C165.962 63.358 165.422 63.202 164.822 63.202C164.21 63.202 163.658 63.358 163.166 63.67C162.686 63.97 162.302 64.378 162.014 64.894C161.726 65.398 161.582 65.98 161.582 66.64C161.582 67.288 161.726 67.876 162.014 68.404C162.302 68.932 162.686 69.346 163.166 69.646C163.658 69.946 164.21 70.096 164.822 70.096ZM172.718 71.5V63.4H170.864V61.798H172.718V61.114C172.718 60.418 172.868 59.83 173.168 59.35C173.48 58.87 173.888 58.504 174.392 58.252C174.908 58 175.478 57.874 176.102 57.874C176.234 57.874 176.378 57.886 176.534 57.91C176.702 57.922 176.84 57.94 176.948 57.964V59.458C176.852 59.434 176.738 59.422 176.606 59.422C176.474 59.41 176.372 59.404 176.3 59.404C175.748 59.404 175.292 59.536 174.932 59.8C174.584 60.064 174.41 60.502 174.41 61.114V61.798H176.714V63.4H174.41V71.5H172.718ZM183.052 71.608C182.104 71.608 181.372 71.338 180.856 70.798C180.352 70.258 180.1 69.496 180.1 68.512V63.4H178.336V61.798H178.696C179.128 61.798 179.47 61.666 179.722 61.402C179.974 61.138 180.1 60.79 180.1 60.358V59.566H181.774V61.798H183.952V63.4H181.774V68.458C181.774 68.782 181.822 69.064 181.918 69.304C182.026 69.544 182.2 69.736 182.44 69.88C182.68 70.012 182.998 70.078 183.394 70.078C183.478 70.078 183.58 70.072 183.7 70.06C183.832 70.048 183.952 70.036 184.06 70.024V71.5C183.904 71.536 183.73 71.56 183.538 71.572C183.346 71.596 183.184 71.608 183.052 71.608ZM188.479 71.5L185.149 61.798H187.003L189.649 69.916L189.001 69.898L191.593 61.798H193.177L195.769 69.898L195.121 69.916L197.785 61.798H199.621L196.291 71.5H194.689L192.133 63.4H192.637L190.081 71.5H188.479ZM203.611 71.716C202.975 71.716 202.411 71.602 201.919 71.374C201.439 71.134 201.061 70.81 200.785 70.402C200.509 69.982 200.371 69.502 200.371 68.962C200.371 68.446 200.479 67.984 200.695 67.576C200.923 67.156 201.271 66.802 201.739 66.514C202.219 66.226 202.819 66.022 203.539 65.902L207.139 65.308V66.712L203.917 67.252C203.293 67.36 202.837 67.558 202.549 67.846C202.273 68.134 202.135 68.488 202.135 68.908C202.135 69.304 202.291 69.634 202.603 69.898C202.927 70.162 203.329 70.294 203.809 70.294C204.421 70.294 204.949 70.168 205.393 69.916C205.849 69.652 206.203 69.298 206.455 68.854C206.719 68.41 206.851 67.918 206.851 67.378V64.912C206.851 64.384 206.653 63.958 206.257 63.634C205.873 63.298 205.363 63.13 204.727 63.13C204.175 63.13 203.683 63.274 203.251 63.562C202.831 63.838 202.519 64.21 202.315 64.678L200.857 63.922C201.037 63.478 201.325 63.082 201.721 62.734C202.117 62.374 202.579 62.092 203.107 61.888C203.635 61.684 204.187 61.582 204.763 61.582C205.507 61.582 206.161 61.726 206.725 62.014C207.289 62.29 207.727 62.68 208.039 63.184C208.363 63.676 208.525 64.252 208.525 64.912V71.5H206.887V69.664L207.193 69.772C206.989 70.156 206.713 70.492 206.365 70.78C206.017 71.068 205.609 71.296 205.141 71.464C204.673 71.632 204.163 71.716 203.611 71.716ZM211.12 71.5V61.798H212.758V63.58L212.578 63.328C212.806 62.776 213.154 62.368 213.622 62.104C214.09 61.828 214.66 61.69 215.332 61.69H215.926V63.274H215.08C214.396 63.274 213.844 63.49 213.424 63.922C213.004 64.342 212.794 64.942 212.794 65.722V71.5H211.12ZM221.877 71.716C220.941 71.716 220.107 71.494 219.375 71.05C218.643 70.606 218.067 70 217.647 69.232C217.227 68.452 217.017 67.582 217.017 66.622C217.017 65.65 217.221 64.786 217.629 64.03C218.049 63.274 218.613 62.68 219.321 62.248C220.041 61.804 220.845 61.582 221.733 61.582C222.453 61.582 223.089 61.714 223.641 61.978C224.205 62.23 224.679 62.578 225.063 63.022C225.459 63.454 225.759 63.952 225.963 64.516C226.179 65.068 226.287 65.644 226.287 66.244C226.287 66.376 226.275 66.526 226.251 66.694C226.239 66.85 226.221 67 226.197 67.144H218.241V65.704H225.225L224.433 66.352C224.541 65.728 224.481 65.17 224.253 64.678C224.025 64.186 223.689 63.796 223.245 63.508C222.801 63.22 222.297 63.076 221.733 63.076C221.169 63.076 220.653 63.22 220.185 63.508C219.717 63.796 219.351 64.21 219.087 64.75C218.835 65.278 218.733 65.908 218.781 66.64C218.733 67.348 218.841 67.972 219.105 68.512C219.381 69.04 219.765 69.454 220.257 69.754C220.761 70.042 221.307 70.186 221.895 70.186C222.543 70.186 223.089 70.036 223.533 69.736C223.977 69.436 224.337 69.052 224.613 68.584L226.017 69.304C225.825 69.748 225.525 70.156 225.117 70.528C224.721 70.888 224.247 71.176 223.695 71.392C223.155 71.608 222.549 71.716 221.877 71.716Z" fill="#65636B"/>
</svg>
