<svg width="149" height="55" viewBox="0 0 149 55" fill="none" xmlns="http://www.w3.org/2000/svg">
<path d="M18.375 19.0625C18.375 23.7224 14.5974 27.5 9.9375 27.5H1.5V19.0625C1.5 14.4026 5.27759 10.625 9.9375 10.625C14.5974 10.625 18.375 14.4026 18.375 19.0625Z" fill="#762BEB"/>
<path d="M18.375 35.9375C18.375 31.2776 22.1526 27.5 26.8125 27.5H35.25V35.9375C35.25 40.5974 31.4724 44.375 26.8125 44.375C22.1526 44.375 18.375 40.5974 18.375 35.9375Z" fill="#762BEB"/>
<path d="M1.5 35.9375C1.5 40.5974 5.27759 44.375 9.9375 44.375H18.375V35.9375C18.375 31.2776 14.5974 27.5 9.9375 27.5C5.27759 27.5 1.5 31.2776 1.5 35.9375Z" fill="#762BEB"/>
<path d="M35.25 19.0625C35.25 14.4026 31.4724 10.625 26.8125 10.625H18.375V19.0625C18.375 23.7224 22.1526 27.5 26.8125 27.5C31.4724 27.5 35.25 23.7224 35.25 19.0625Z" fill="#762BEB"/>
<path d="M50.47 27.32L45.11 16.2H52.47L56.15 25.16L59.95 16.2H67.11L61.83 27.32L67.47 39.04H60.11L56.15 29.36L52.07 39.04H44.67L50.47 27.32ZM69.4463 16.2H76.6463V39H69.4463V16.2ZM87.3753 29.8V39H80.6953V16.2H87.4553L93.4953 25.4C94.402 26.76 95.0953 27.9067 95.5753 28.84H95.6953V25V16.2H102.335V39H95.5353L89.3353 29.4L87.5353 26.68H87.4153L87.3753 29.8ZM106.201 16.2H113.401V33.72H122.721V39H106.201V16.2ZM125.345 16.2H132.545V39H125.345V16.2Z" fill="#020014"/>
</svg>
