<svg width="248" height="95" viewBox="0 0 248 95" fill="none" xmlns="http://www.w3.org/2000/svg">
<mask id="path-1-inside-1_1_566" fill="white">
<path d="M0 16C0 7.16344 7.16344 0 16 0H232C240.837 0 248 7.16344 248 16V79C248 87.8366 240.837 95 232 95H16C7.16344 95 0 87.8366 0 79V16Z"/>
</mask>
<path d="M0 16C0 7.16344 7.16344 0 16 0H232C240.837 0 248 7.16344 248 16V79C248 87.8366 240.837 95 232 95H16C7.16344 95 0 87.8366 0 79V16Z" fill="white"/>
<path d="M-1 16C-1 6.61116 6.61116 -1 16 -1H235C244.389 -1 252 6.61116 252 16H244C244 7.71573 238.627 1 232 1H16C7.71573 1 1 7.71573 1 16H-1ZM252 79C252 90.0457 243.046 99 232 99H16C6.61116 99 -1 91.3888 -1 82L1 79C1 85.6274 7.71573 91 16 91H232C238.627 91 244 85.6274 244 79H252ZM16 99C6.61116 99 -1 91.3888 -1 82V16C-1 6.61116 6.61116 -1 16 -1V1C7.71573 1 1 7.71573 1 16V79C1 85.6274 7.71573 91 16 91V99ZM235 -1C244.389 -1 252 6.61116 252 16V79C252 90.0457 243.046 99 232 99V91C238.627 91 244 85.6274 244 79V16C244 7.71573 238.627 1 232 1L235 -1Z" fill="#0B0A2F" mask="url(#path-1-inside-1_1_566)"/>
<path d="M65.1172 22.5H24.8828C22.1861 22.5 20 24.6861 20 27.3828V67.6172C20 70.3139 22.1861 72.5 24.8828 72.5H65.1172C67.8139 72.5 70 70.3139 70 67.6172V27.3828C70 24.6861 67.8139 22.5 65.1172 22.5Z" fill="url(#paint0_linear_1_566)"/>
<path d="M61.1562 29H50.5938C49.2993 29 48.25 30.0493 48.25 31.3438V48.5312C48.25 49.8257 49.2993 50.875 50.5938 50.875H61.1562C62.4507 50.875 63.5 49.8257 63.5 48.5312V31.3438C63.5 30.0493 62.4507 29 61.1562 29Z" fill="white"/>
<path d="M39.4063 29H28.8438C27.5493 29 26.5 30.0493 26.5 31.3438V61.0312C26.5 62.3257 27.5493 63.375 28.8438 63.375H39.4063C40.7007 63.375 41.75 62.3257 41.75 61.0312V31.3438C41.75 30.0493 40.7007 29 39.4063 29Z" fill="white"/>
<path d="M88.6383 43V29.58H84.4803V26.61H96.1403V29.58H92.0483V43H88.6383ZM96.2764 43V30.988H99.3564V33.87L99.1364 33.452C99.4004 32.44 99.8331 31.758 100.434 31.406C101.05 31.0393 101.776 30.856 102.612 30.856H103.316V33.716H102.282C101.476 33.716 100.823 33.9653 100.324 34.464C99.8257 34.948 99.5764 35.6373 99.5764 36.532V43H96.2764ZM110.549 43.264C109.273 43.264 108.165 42.9853 107.227 42.428C106.288 41.856 105.562 41.0933 105.049 40.14C104.535 39.1867 104.279 38.1307 104.279 36.972C104.279 35.7693 104.543 34.6987 105.071 33.76C105.613 32.8213 106.339 32.0807 107.249 31.538C108.158 30.9953 109.185 30.724 110.329 30.724C111.282 30.724 112.125 30.878 112.859 31.186C113.592 31.4793 114.208 31.8973 114.707 32.44C115.22 32.9827 115.609 33.6133 115.873 34.332C116.137 35.036 116.269 35.806 116.269 36.642C116.269 36.8767 116.254 37.1113 116.225 37.346C116.21 37.566 116.173 37.7567 116.115 37.918H107.117V35.498H114.245L112.683 36.642C112.829 36.0113 112.822 35.454 112.661 34.97C112.499 34.4713 112.213 34.0827 111.803 33.804C111.407 33.5107 110.915 33.364 110.329 33.364C109.757 33.364 109.265 33.5033 108.855 33.782C108.444 34.0607 108.136 34.4713 107.931 35.014C107.725 35.5567 107.645 36.2167 107.689 36.994C107.63 37.6687 107.711 38.2627 107.931 38.776C108.151 39.2893 108.488 39.6927 108.943 39.986C109.397 40.2647 109.947 40.404 110.593 40.404C111.179 40.404 111.678 40.2867 112.089 40.052C112.514 39.8173 112.844 39.4947 113.079 39.084L115.719 40.338C115.484 40.9247 115.11 41.438 114.597 41.878C114.098 42.318 113.504 42.6627 112.815 42.912C112.125 43.1467 111.37 43.264 110.549 43.264ZM118.212 43V26.346H121.512V43H118.212ZM123.927 43V26.346H127.227V43H123.927ZM135.604 43.264C134.416 43.264 133.33 42.9927 132.348 42.45C131.38 41.9073 130.602 41.1667 130.016 40.228C129.444 39.2747 129.158 38.1967 129.158 36.994C129.158 35.7767 129.444 34.6987 130.016 33.76C130.602 32.8213 131.38 32.0807 132.348 31.538C133.33 30.9953 134.416 30.724 135.604 30.724C136.792 30.724 137.87 30.9953 138.838 31.538C139.806 32.0807 140.576 32.8213 141.148 33.76C141.734 34.6987 142.028 35.7767 142.028 36.994C142.028 38.1967 141.734 39.2747 141.148 40.228C140.576 41.1667 139.806 41.9073 138.838 42.45C137.87 42.9927 136.792 43.264 135.604 43.264ZM135.604 40.294C136.205 40.294 136.726 40.1547 137.166 39.876C137.62 39.5973 137.972 39.2087 138.222 38.71C138.486 38.2113 138.618 37.6393 138.618 36.994C138.618 36.3487 138.486 35.784 138.222 35.3C137.972 34.8013 137.62 34.4127 137.166 34.134C136.726 33.8407 136.205 33.694 135.604 33.694C135.002 33.694 134.474 33.8407 134.02 34.134C133.565 34.4127 133.206 34.8013 132.942 35.3C132.692 35.784 132.568 36.3487 132.568 36.994C132.568 37.6393 132.692 38.2113 132.942 38.71C133.206 39.2087 133.565 39.5973 134.02 39.876C134.474 40.1547 135.002 40.294 135.604 40.294Z" fill="#0B0A2F"/>
<path d="M85.494 71V57.59H89.886C91.242 57.59 92.424 57.866 93.432 58.418C94.44 58.97 95.22 59.75 95.772 60.758C96.324 61.754 96.6 62.93 96.6 64.286C96.6 65.63 96.324 66.806 95.772 67.814C95.22 68.822 94.44 69.608 93.432 70.172C92.424 70.724 91.242 71 89.886 71H85.494ZM87.258 69.38H89.904C90.9 69.38 91.758 69.17 92.478 68.75C93.21 68.33 93.774 67.742 94.17 66.986C94.566 66.218 94.764 65.318 94.764 64.286C94.764 63.242 94.56 62.342 94.152 61.586C93.756 60.83 93.192 60.248 92.46 59.84C91.74 59.42 90.888 59.21 89.904 59.21H87.258V69.38ZM103.102 71.216C102.166 71.216 101.332 70.994 100.6 70.55C99.8678 70.106 99.2918 69.5 98.8718 68.732C98.4518 67.952 98.2418 67.082 98.2418 66.122C98.2418 65.15 98.4458 64.286 98.8538 63.53C99.2738 62.774 99.8378 62.18 100.546 61.748C101.266 61.304 102.07 61.082 102.958 61.082C103.678 61.082 104.314 61.214 104.866 61.478C105.43 61.73 105.904 62.078 106.288 62.522C106.684 62.954 106.984 63.452 107.188 64.016C107.404 64.568 107.512 65.144 107.512 65.744C107.512 65.876 107.5 66.026 107.476 66.194C107.464 66.35 107.446 66.5 107.422 66.644H99.4658V65.204H106.45L105.658 65.852C105.766 65.228 105.706 64.67 105.478 64.178C105.25 63.686 104.914 63.296 104.47 63.008C104.026 62.72 103.522 62.576 102.958 62.576C102.394 62.576 101.878 62.72 101.41 63.008C100.942 63.296 100.576 63.71 100.312 64.25C100.06 64.778 99.9578 65.408 100.006 66.14C99.9578 66.848 100.066 67.472 100.33 68.012C100.606 68.54 100.99 68.954 101.482 69.254C101.986 69.542 102.532 69.686 103.12 69.686C103.768 69.686 104.314 69.536 104.758 69.236C105.202 68.936 105.562 68.552 105.838 68.084L107.242 68.804C107.05 69.248 106.75 69.656 106.342 70.028C105.946 70.388 105.472 70.676 104.92 70.892C104.38 71.108 103.774 71.216 103.102 71.216ZM113.168 71.216C112.196 71.216 111.35 70.976 110.63 70.496C109.91 70.016 109.4 69.368 109.1 68.552L110.432 67.904C110.708 68.48 111.086 68.936 111.566 69.272C112.046 69.608 112.58 69.776 113.168 69.776C113.696 69.776 114.134 69.65 114.482 69.398C114.83 69.146 115.004 68.816 115.004 68.408C115.004 68.12 114.92 67.892 114.752 67.724C114.596 67.544 114.404 67.406 114.176 67.31C113.948 67.202 113.738 67.124 113.546 67.076L112.088 66.662C111.212 66.41 110.57 66.05 110.162 65.582C109.766 65.114 109.568 64.568 109.568 63.944C109.568 63.368 109.712 62.87 110 62.45C110.3 62.018 110.702 61.682 111.206 61.442C111.722 61.202 112.298 61.082 112.934 61.082C113.786 61.082 114.548 61.298 115.22 61.73C115.904 62.162 116.39 62.768 116.678 63.548L115.31 64.178C115.094 63.674 114.77 63.278 114.338 62.99C113.906 62.69 113.42 62.54 112.88 62.54C112.388 62.54 111.998 62.666 111.71 62.918C111.422 63.158 111.278 63.464 111.278 63.836C111.278 64.112 111.35 64.34 111.494 64.52C111.638 64.688 111.812 64.82 112.016 64.916C112.22 65 112.418 65.072 112.61 65.132L114.194 65.6C114.986 65.828 115.598 66.182 116.03 66.662C116.474 67.142 116.696 67.718 116.696 68.39C116.696 68.93 116.546 69.416 116.246 69.848C115.946 70.28 115.532 70.616 115.004 70.856C114.476 71.096 113.864 71.216 113.168 71.216ZM118.888 71V61.298H120.562V71H118.888ZM118.888 59.75V57.59H120.562V59.75H118.888ZM127.785 74.96C127.101 74.96 126.465 74.852 125.877 74.636C125.301 74.42 124.803 74.12 124.383 73.736C123.975 73.364 123.663 72.926 123.447 72.422L125.013 71.702C125.181 72.158 125.499 72.542 125.967 72.854C126.447 73.178 127.047 73.34 127.767 73.34C128.319 73.34 128.817 73.232 129.261 73.016C129.717 72.812 130.077 72.5 130.341 72.08C130.605 71.672 130.737 71.174 130.737 70.586V68.408L131.043 68.732C130.707 69.392 130.221 69.896 129.585 70.244C128.961 70.592 128.271 70.766 127.515 70.766C126.603 70.766 125.787 70.556 125.067 70.136C124.347 69.704 123.783 69.122 123.375 68.39C122.967 67.646 122.763 66.824 122.763 65.924C122.763 65.012 122.967 64.19 123.375 63.458C123.783 62.726 124.341 62.15 125.049 61.73C125.769 61.298 126.585 61.082 127.497 61.082C128.253 61.082 128.937 61.256 129.549 61.604C130.173 61.94 130.671 62.408 131.043 63.008L130.791 63.458V61.298H132.429V70.586C132.429 71.426 132.231 72.176 131.835 72.836C131.439 73.496 130.887 74.012 130.179 74.384C129.483 74.768 128.685 74.96 127.785 74.96ZM127.659 69.146C128.235 69.146 128.751 69.002 129.207 68.714C129.675 68.426 130.047 68.042 130.323 67.562C130.599 67.07 130.737 66.524 130.737 65.924C130.737 65.336 130.599 64.796 130.323 64.304C130.047 63.812 129.675 63.422 129.207 63.134C128.751 62.846 128.235 62.702 127.659 62.702C127.071 62.702 126.537 62.846 126.057 63.134C125.577 63.422 125.199 63.812 124.923 64.304C124.659 64.784 124.527 65.324 124.527 65.924C124.527 66.524 124.659 67.07 124.923 67.562C125.199 68.042 125.571 68.426 126.039 68.714C126.519 69.002 127.059 69.146 127.659 69.146ZM135.025 71V61.298H136.663V63.188L136.393 63.026C136.633 62.414 137.017 61.94 137.545 61.604C138.085 61.256 138.715 61.082 139.435 61.082C140.131 61.082 140.749 61.238 141.289 61.55C141.841 61.862 142.273 62.294 142.585 62.846C142.909 63.398 143.071 64.022 143.071 64.718V71H141.379V65.258C141.379 64.718 141.283 64.262 141.091 63.89C140.899 63.518 140.623 63.23 140.263 63.026C139.915 62.81 139.513 62.702 139.057 62.702C138.601 62.702 138.193 62.81 137.833 63.026C137.485 63.23 137.209 63.524 137.005 63.908C136.801 64.28 136.699 64.73 136.699 65.258V71H135.025ZM153.383 71.216C152.531 71.216 151.751 71.06 151.043 70.748C150.335 70.424 149.735 69.986 149.243 69.434C148.751 68.882 148.397 68.264 148.181 67.58L149.711 66.95C150.035 67.814 150.515 68.48 151.151 68.948C151.799 69.404 152.555 69.632 153.419 69.632C153.947 69.632 154.409 69.548 154.805 69.38C155.201 69.212 155.507 68.978 155.723 68.678C155.951 68.366 156.065 68.006 156.065 67.598C156.065 67.034 155.903 66.59 155.579 66.266C155.267 65.93 154.805 65.678 154.193 65.51L151.727 64.754C150.755 64.454 150.011 63.98 149.495 63.332C148.979 62.684 148.721 61.94 148.721 61.1C148.721 60.368 148.895 59.726 149.243 59.174C149.603 58.61 150.095 58.172 150.719 57.86C151.355 57.536 152.075 57.374 152.879 57.374C153.683 57.374 154.409 57.518 155.057 57.806C155.717 58.094 156.275 58.484 156.731 58.976C157.187 59.456 157.523 60.008 157.739 60.632L156.227 61.262C155.939 60.506 155.507 59.936 154.931 59.552C154.355 59.156 153.677 58.958 152.897 58.958C152.417 58.958 151.991 59.042 151.619 59.21C151.259 59.366 150.977 59.6 150.773 59.912C150.581 60.212 150.485 60.572 150.485 60.992C150.485 61.484 150.641 61.922 150.953 62.306C151.265 62.69 151.739 62.984 152.375 63.188L154.625 63.854C155.681 64.178 156.479 64.64 157.019 65.24C157.559 65.84 157.829 66.584 157.829 67.472C157.829 68.204 157.637 68.852 157.253 69.416C156.881 69.98 156.359 70.424 155.687 70.748C155.027 71.06 154.259 71.216 153.383 71.216ZM164.822 71.216C163.886 71.216 163.04 71 162.284 70.568C161.528 70.124 160.928 69.518 160.484 68.75C160.04 67.982 159.818 67.112 159.818 66.14C159.818 65.168 160.034 64.304 160.466 63.548C160.91 62.792 161.51 62.192 162.266 61.748C163.022 61.304 163.874 61.082 164.822 61.082C165.758 61.082 166.604 61.304 167.36 61.748C168.116 62.18 168.71 62.774 169.142 63.53C169.586 64.286 169.808 65.156 169.808 66.14C169.808 67.124 169.58 68 169.124 68.768C168.668 69.524 168.062 70.124 167.306 70.568C166.562 71 165.734 71.216 164.822 71.216ZM164.822 69.596C165.422 69.596 165.962 69.446 166.442 69.146C166.934 68.846 167.318 68.432 167.594 67.904C167.882 67.376 168.026 66.788 168.026 66.14C168.026 65.48 167.882 64.898 167.594 64.394C167.318 63.878 166.934 63.47 166.442 63.17C165.962 62.858 165.422 62.702 164.822 62.702C164.21 62.702 163.658 62.858 163.166 63.17C162.686 63.47 162.302 63.878 162.014 64.394C161.726 64.898 161.582 65.48 161.582 66.14C161.582 66.788 161.726 67.376 162.014 67.904C162.302 68.432 162.686 68.846 163.166 69.146C163.658 69.446 164.21 69.596 164.822 69.596ZM172.718 71V62.9H170.864V61.298H172.718V60.614C172.718 59.918 172.868 59.33 173.168 58.85C173.48 58.37 173.888 58.004 174.392 57.752C174.908 57.5 175.478 57.374 176.102 57.374C176.234 57.374 176.378 57.386 176.534 57.41C176.702 57.422 176.84 57.44 176.948 57.464V58.958C176.852 58.934 176.738 58.922 176.606 58.922C176.474 58.91 176.372 58.904 176.3 58.904C175.748 58.904 175.292 59.036 174.932 59.3C174.584 59.564 174.41 60.002 174.41 60.614V61.298H176.714V62.9H174.41V71H172.718ZM183.052 71.108C182.104 71.108 181.372 70.838 180.856 70.298C180.352 69.758 180.1 68.996 180.1 68.012V62.9H178.336V61.298H178.696C179.128 61.298 179.47 61.166 179.722 60.902C179.974 60.638 180.1 60.29 180.1 59.858V59.066H181.774V61.298H183.952V62.9H181.774V67.958C181.774 68.282 181.822 68.564 181.918 68.804C182.026 69.044 182.2 69.236 182.44 69.38C182.68 69.512 182.998 69.578 183.394 69.578C183.478 69.578 183.58 69.572 183.7 69.56C183.832 69.548 183.952 69.536 184.06 69.524V71C183.904 71.036 183.73 71.06 183.538 71.072C183.346 71.096 183.184 71.108 183.052 71.108ZM188.479 71L185.149 61.298H187.003L189.649 69.416L189.001 69.398L191.593 61.298H193.177L195.769 69.398L195.121 69.416L197.785 61.298H199.621L196.291 71H194.689L192.133 62.9H192.637L190.081 71H188.479ZM203.611 71.216C202.975 71.216 202.411 71.102 201.919 70.874C201.439 70.634 201.061 70.31 200.785 69.902C200.509 69.482 200.371 69.002 200.371 68.462C200.371 67.946 200.479 67.484 200.695 67.076C200.923 66.656 201.271 66.302 201.739 66.014C202.219 65.726 202.819 65.522 203.539 65.402L207.139 64.808V66.212L203.917 66.752C203.293 66.86 202.837 67.058 202.549 67.346C202.273 67.634 202.135 67.988 202.135 68.408C202.135 68.804 202.291 69.134 202.603 69.398C202.927 69.662 203.329 69.794 203.809 69.794C204.421 69.794 204.949 69.668 205.393 69.416C205.849 69.152 206.203 68.798 206.455 68.354C206.719 67.91 206.851 67.418 206.851 66.878V64.412C206.851 63.884 206.653 63.458 206.257 63.134C205.873 62.798 205.363 62.63 204.727 62.63C204.175 62.63 203.683 62.774 203.251 63.062C202.831 63.338 202.519 63.71 202.315 64.178L200.857 63.422C201.037 62.978 201.325 62.582 201.721 62.234C202.117 61.874 202.579 61.592 203.107 61.388C203.635 61.184 204.187 61.082 204.763 61.082C205.507 61.082 206.161 61.226 206.725 61.514C207.289 61.79 207.727 62.18 208.039 62.684C208.363 63.176 208.525 63.752 208.525 64.412V71H206.887V69.164L207.193 69.272C206.989 69.656 206.713 69.992 206.365 70.28C206.017 70.568 205.609 70.796 205.141 70.964C204.673 71.132 204.163 71.216 203.611 71.216ZM211.12 71V61.298H212.758V63.08L212.578 62.828C212.806 62.276 213.154 61.868 213.622 61.604C214.09 61.328 214.66 61.19 215.332 61.19H215.926V62.774H215.08C214.396 62.774 213.844 62.99 213.424 63.422C213.004 63.842 212.794 64.442 212.794 65.222V71H211.12ZM221.877 71.216C220.941 71.216 220.107 70.994 219.375 70.55C218.643 70.106 218.067 69.5 217.647 68.732C217.227 67.952 217.017 67.082 217.017 66.122C217.017 65.15 217.221 64.286 217.629 63.53C218.049 62.774 218.613 62.18 219.321 61.748C220.041 61.304 220.845 61.082 221.733 61.082C222.453 61.082 223.089 61.214 223.641 61.478C224.205 61.73 224.679 62.078 225.063 62.522C225.459 62.954 225.759 63.452 225.963 64.016C226.179 64.568 226.287 65.144 226.287 65.744C226.287 65.876 226.275 66.026 226.251 66.194C226.239 66.35 226.221 66.5 226.197 66.644H218.241V65.204H225.225L224.433 65.852C224.541 65.228 224.481 64.67 224.253 64.178C224.025 63.686 223.689 63.296 223.245 63.008C222.801 62.72 222.297 62.576 221.733 62.576C221.169 62.576 220.653 62.72 220.185 63.008C219.717 63.296 219.351 63.71 219.087 64.25C218.835 64.778 218.733 65.408 218.781 66.14C218.733 66.848 218.841 67.472 219.105 68.012C219.381 68.54 219.765 68.954 220.257 69.254C220.761 69.542 221.307 69.686 221.895 69.686C222.543 69.686 223.089 69.536 223.533 69.236C223.977 68.936 224.337 68.552 224.613 68.084L226.017 68.804C225.825 69.248 225.525 69.656 225.117 70.028C224.721 70.388 224.247 70.676 223.695 70.892C223.155 71.108 222.549 71.216 221.877 71.216Z" fill="#65636B"/>
<defs>
<linearGradient id="paint0_linear_1_566" x1="2520" y1="22.5" x2="2520" y2="5022.5" gradientUnits="userSpaceOnUse">
<stop stop-color="#0091E6"/>
<stop offset="1" stop-color="#0079BF"/>
</linearGradient>
</defs>
</svg>
