<svg width="239" height="280" viewBox="0 0 239 280" fill="none" xmlns="http://www.w3.org/2000/svg">
<mask id="path-1-inside-1_1_443" fill="white">
<path d="M0 50C0 22.3858 22.3858 0 50 0H189C216.614 0 239 22.3858 239 50V230C239 257.614 216.614 280 189 280H50C22.3858 280 0 257.614 0 230V50Z"/>
</mask>
<path d="M0 50C0 22.3858 22.3858 0 50 0H189C216.614 0 239 22.3858 239 50V230C239 257.614 216.614 280 189 280H50C22.3858 280 0 257.614 0 230V50Z" fill="white"/>
<path d="M-1 50C-1 21.8335 21.8335 -1 50 -1H194C222.167 -1 245 21.8335 245 50H233C233 22.938 213.301 1 189 1H50C22.938 1 1 22.938 1 50H-1ZM245 230C245 260.928 219.928 286 189 286H50C21.8335 286 -1 263.167 -1 235L1 230C1 254.301 22.938 274 50 274H189C213.301 274 233 254.301 233 230H245ZM50 286C21.8335 286 -1 263.167 -1 235V50C-1 21.8335 21.8335 -1 50 -1V1C22.938 1 1 22.938 1 50V230C1 254.301 22.938 274 50 274V286ZM194 -1C222.167 -1 245 21.8335 245 50V230C245 260.928 219.928 286 189 286V274C213.301 274 233 254.301 233 230V50C233 22.938 213.301 1 189 1L194 -1Z" fill="#0B0A2F" mask="url(#path-1-inside-1_1_443)"/>
</svg>
